<svg xmlns="http://www.w3.org/2000/svg" viewBox="0 0 490.35 484.71"><title>Recurso 1</title><g id="Capa_2" data-name="Capa 2"><g id="Capa_1-2" data-name="Capa 1"><path d="M490.35,237.87c-.38,34.45-5.48,63.38-16.37,91.25-18.81,48.11-50,86.23-92.83,114.86a248,248,0,0,1-156.51,39.85c-48.6-4.07-92.46-21-131.06-51A239.29,239.29,0,0,1,16.71,330.64C2.12,293.89-2.78,255.66,1.48,216.3a234.6,234.6,0,0,1,43-113Q89,41,160.9,14.82a241.72,241.72,0,0,1,103-14C312.19,4.54,356,20.85,394.62,50.4c32.32,24.71,57.14,55.43,74,92.44,10.22,22.4,17.1,45.82,19.61,70.39C489.25,223,489.92,232.71,490.35,237.87Zm-199.2-190c-3.1-2.58-6.34-1.58-9.56-1.08v1.58l9.67-.6c.53.58,1,1.58,1.61,1.66,2.86.38,5.75.52,9.47.8C298.69,46.38,294.72,48.12,291.15,47.91ZM366.7,445.43c1.79-1,2.94-1.5,4-2.16a236.63,236.63,0,0,0,70.34-65.74,233.2,233.2,0,0,0,34.18-198.78,229.39,229.39,0,0,0-54.89-96.93c-41.05-43.38-91.64-68-150.92-74.47A234.12,234.12,0,0,0,178.5,15.5C141.16,26.3,108.16,44.82,80,71.7,39.42,110.45,15.2,157.54,8,213.32a230,230,0,0,0,1.24,67,227.11,227.11,0,0,0,26.49,75.9Q75.45,426.5,149.46,458.85a237.23,237.23,0,0,0,94.59,19.77c25.71.16,51-3.34,75.31-11.86,13.95-4.89,27.31-11.46,40.84-17.49,1.5-.67,3.24-2.68,3.35-4.19.23-3.15-.58-6.37-.92-9.57-.87-8.21-1.76-16.42-2.57-24.64-.85-8.52-1.44-17.08-2.48-25.58-.61-5-2.05-9.89-2.81-14.88-1.07-7-1.45-14.21-2.86-21.17-1.8-8.85-4.23-17.58-6.66-26.29a5,5,0,0,0-3.41-3,38.84,38.84,0,0,0-10.5.41c-16,3.21-29.89,11.09-42.92,20.39-11.3,8.06-21.94,17.06-32.85,25.67-1.58,1.25-2.81,3.5-4.53,3.91-8.79,2.1-14.75,7.92-19.81,14.74-2.36,3.17-4.93,3.29-7.78,1.92-5-2.4-9.69-5.31-14.62-7.81-7.83-4-15.67-7.91-23.64-11.57-6.81-3.13-13.87-5.74-20.73-8.78-5.12-2.27-7.8-1.24-9.86,3.95-.45,1.13-1.69,1.95-2.61,2.87a68.53,68.53,0,0,0-4.91,4.88c-6.13,7.55-12.11,15.22-18.23,22.77-2.4,3-5.22,2.82-8.33.85q-8.2-5.18-16.58-10.07a71.45,71.45,0,0,0-22.74-8.6,145.36,145.36,0,0,1-14.85-4,3.69,3.69,0,0,1-2.22-2.33,85.27,85.27,0,0,1-1.46-12.3c-.28-12,.8-23.79,2.22-35.73,1.64-13.74.43-27.83.29-41.76a7.67,7.67,0,0,1,3.21-6.87c3.77-3.08,6.84-7.06,10-10.79,5.26-6.09,10.24-12.43,15.63-18.4,4.33-4.78,10-8.61,13.44-13.89,3.67-5.58,8.69-8,14.33-10.07,2.26-.83,3.57.46,3.89,2.54a25.36,25.36,0,0,1,0,5.08c-.79,16.25-1.94,32.5-2.32,48.76-.32,14.07.18,28.17.43,42.25a68.71,68.71,0,0,0,1,6.93c.17,1.45.08,2.93.3,4.37.15,1,.32,2.45,1,2.91,1.06.71,3.1,1.46,3.78.94a39.45,39.45,0,0,0,5-5.22,61.32,61.32,0,0,1-6.23-3.56,18.25,18.25,0,0,1-2.85-3.45c1.44-.58,2.88-1.62,4.32-1.64,9.91-.1,19.82,0,29.73.1,2.55,0,4.2-.23,5.21-3.18,1.46-4.29,6.81-7.55,10.59-7.3,3.94.26,10,4.66,10.54,8.21a104.27,104.27,0,0,1,1.49,14.3c.06,2.69,1,4,3.33,5,7,2.81,14.15,5.24,20.76,8.73,10.17,5.39,19.93,11.57,29.9,17.33,2,1.13,4.13,1.89,6.2,2.83-.33-.58-.67-1.15-1-1.72l5.57-3.52c6-3.79,12.18-7.37,18-11.42,5.65-3.92,10.81-8.54,16.48-12.43,4.81-3.29,10.2-5.73,15-9,12.16-8.17,25.62-12.71,40.5-15.26-5.7-27.14-11.44-54.42-17.32-82.43-5.06,4.13-11.13,7-11.58,13.54a161.24,161.24,0,0,0,.6,24.46c.43,5,2.23,9.79,3.2,14.72.75,3.8-.53,6.1-6.13,4.92,1.08,6,2.13,11.26,2.93,16.56.23,1.51.29,3.87-.57,4.55a56.44,56.44,0,0,0-5.36,4.23c-1.62,1.59-4.8,1.77-7.36,2.12-.8.11-2.15-1-2.62-1.93-.78-1.45-.86-3.25-1.55-4.76-1.46-3.16-2.81-6.45-4.86-9.21-.76-1-3.44-.44-5.06-1.07-1.27-.49-3-1.59-3.22-2.66-1.09-6.07-1.75-12.22-2.62-18.34-.25-1.78-.31-3.72-1.09-5.27-3.22-6.41-6.45-12.66-5.93-20.27.13-1.88-1.58-4.68-3.27-5.75-11-6.93-22.49-13-33.13-20.34-8.33-5.76-17.13-11.29-23.18-19.83-3.9-5.5-8.76-10.58-11.44-16.63a340.75,340.75,0,0,1-14-37.86c-3.94-12.82-7-25.46-6.95-38.9.08-12.78-.16-25.57-.61-38.34a28.34,28.34,0,0,1,3.85-15.61c1-1.69,1.63-3.56,2.65-5.21,3.92-6.35,6.51-13.79,14-17.27,2-.92,3.8-2.3,5.86-3,7-2.31,13.91-5.44,21.1-6.32,10.51-1.3,21.22-1.11,31.86-1.19A86,86,0,0,1,275,26.14,162.45,162.45,0,0,1,292,29.75c3.07.84,5.78,2.94,8.83,3.94,9.95,3.25,18.34,9.12,26.31,15.6,9.12,7.42,12.76,18.36,17.18,28.65,2.8,6.52,4.43,13.52,7,20.14,4.82,12.22,8.1,24.67,6.86,38-.43,4.64-1.3,9.24-1.52,13.88-.31,6.38-.1,12.78-.27,19.17-.33,11.93-3.23,23.28-9.68,33.29-4.47,6.93-10.2,13-15.24,19.62a8.74,8.74,0,0,0-1.91,4.6c-.07,2.22.77,4.46,1,6.71.32,3,.16,6,.7,8.91,2.79,15,5.75,30,8.63,45,1.77,9.26,3.49,18.52,5.23,27.78l1.15-.79,4.9,3.37-4.3,3.93c1.52,6,3.22,12.65,4.85,19.29.95,3.89,2,7.76,2.63,11.71,1.16,7.41,2.05,14.87,3.06,22.3,1.63,12.06,3.42,24.09,4.86,36.17.79,6.68.76,13.45,1.54,20.14C364.37,435.79,365.65,440.34,366.7,445.43ZM315.92,231.76c-.32.05,0,.1.16,0,10.76-9.43,20.54-19.77,28-32a61.18,61.18,0,0,0,8.65-28.42c.91-15.7.86-31.46.79-47.19A52.52,52.52,0,0,0,351.18,110c-2.25-7.82-5-15.48-7.78-23.14a3.3,3.3,0,0,0-2.92-1.37c-5.87,1.73-11.36,1.21-16.19-2.6C316.91,77,308.44,76.24,299.56,77a4.36,4.36,0,0,0-1.8.63c-8.38,5-16.73,10-25.13,14.93-1.2.7-3,1.69-3.95,1.29-4.57-1.89-9-.33-13.4.21-6.89.85-13-1.72-19.29-3.62-3.33-1-6.48-2.59-9.77-3.74-10.05-3.51-17.79-3.82-23.48,5.67-4,6.57-8.65,11.92-15.06,16a3.47,3.47,0,0,0-1.55,2.47c.57,8.78,0,17.9,2.31,26.23,3.14,11.53,6.49,23.09,11.17,34.26,4.55,10.85,8.9,21.56,16.79,30.46,2.68,3,4.83,6.72,8,9,9.87,7.12,20.08,13.78,30.25,20.48,3.9,2.58,8,4.78,12.41,7.35-1.32-4.19-2.66-7.66-3.4-11.25-.22-1,1.26-2.43,2-3.67,1,.78,2.52,1.34,3.05,2.39a75.16,75.16,0,0,1,3,7.69l1.36,0c.77-3,1.44-6.09,2.34-9.08a18.89,18.89,0,0,1,1.88-3.47c1,.59,2.11,1.12,3.1,1.78.5.32.91,1.34,1.23,1.28,3.64-.68,4.15,2.32,5.46,4.44a19.91,19.91,0,0,0,2,2.36c.27-1.92.06-4.34.74-4.62,3.41-1.43,2.86-4.06,3-6.79.05-1.31,1.18-2.57,1.82-3.85,1.11,1,2.53,1.86,3.25,3.11a36.75,36.75,0,0,1,2.24,5.74l1.37-.08c.57-2.81,1-5.65,1.75-8.42.33-1.23,1-3,1.91-3.27s2.62.67,3.58,1.52a8.55,8.55,0,0,1,2,3.31C312.46,222.37,314.15,227,315.92,231.76ZM79.46,340.32c8.62-6,16.11-11.58,24-16.5,5.09-3.17,7.25-6.82,6.92-13-.56-10.53-.25-21.12-.1-31.67,0-3.47,1.11-6.93,1.08-10.39,0-4.64-.68-9.28-1.08-13.91-.09-1.07-.26-2.13-.45-3.68-3.94,3-7.73,5.22-10.6,8.28C93.14,266,87.48,272.93,81.7,279.77a4.44,4.44,0,0,0-.82,2.49c-.49,9.33-1,18.66-1.34,28-.16,4-.07,8.09-.08,12.13C79.45,328.06,79.46,333.74,79.46,340.32Zm163.39,28.05c-6.92-4.82-13.06-9.9-19.92-13.67-9.18-5.05-18.85-9.21-28.43-13.49-4.09-1.83-8.48-4.29-12.45.7-.54.68-2.23.84-3.29.67-3.8-.59-6.38.93-8.7,3.84a96,96,0,0,1-7.18,7.36c2.69,1.4,4.57,2.54,6.57,3.41,10.19,4.43,20.48,8.63,30.6,13.22,7.65,3.47,15.16,7.27,22.59,11.2,2.22,1.17,3.3.66,5-.82,4.09-3.55,8.48-6.74,12.73-10.1C241.09,370.13,241.7,369.46,242.85,368.37Zm-103.58,5.48c-2.19-1.21-4-2.25-5.76-3.18-4.67-2.41-4.81-2.31-8.1,2-1.44,1.87-1.1,2.84,1,3.76,2.7,1.17,5.28,2.62,8.2,4.09C136.14,378.33,137.6,376.24,139.27,373.85Zm-4.56-37.17c7.6,4.42,11.56,3.28,14.53-4C142.78,327.76,139.11,328.72,134.71,336.68Zm16.07,2.88c4,2,7.8,3.8,11.55,5.73,2.67,1.36,3.4-.73,4.42-2.33,1.23-1.94.17-2.77-1.62-3.34-2.2-.7-4.56-1.2-6.5-2.37C154.4,334.69,153.34,334.85,150.78,339.56ZM79.5,368.74c5.49,4.84,11.4,3.21,14.21-4.29-2.43-.63-5.19-2.3-7.09-1.6C84,363.82,82,366.56,79.5,368.74Zm18.76-.95a17,17,0,0,0-2.48,3.28c-.41.9-.5,2.8,0,3.08,3.22,1.89,6.63,3.48,10.49,5.42-.53-3.5-.91-6-1.29-8.55Zm49.45-5.23c-2.55-1-4.83-2.76-6.84-2.49-2.79.37-5.38,2.26-8.63,3.77l10.22,5.66Zm-17.38,22-8.79-5c-3.84,5.63-3.88,6.35-.65,8.4C125,390.54,127.19,389.78,130.33,384.53Zm-6.2-18.59c-2.62-1.11-4.7-2.06-6.85-2.85-.61-.23-1.81-.26-2,.08-.73,1.13-2,3.05-1.54,3.63a22.61,22.61,0,0,0,5.16,4.83c.39.29,2-.41,2.5-1.06A35.62,35.62,0,0,0,124.13,365.94ZM111.5,345.63c-1.31,3.65-5.91,5.12-3,8.66,2.37,2.84,4.25,2.16,6.73-.92C119.4,348.24,113.15,348.9,111.5,345.63Zm-11.22,18.44c2.55.94,5.08,2.77,7,2.29,1.41-.35,2-3.79,3.07-5.92L104.8,357ZM291,65.29H273.44C278.34,70.24,286.67,70,291,65.29ZM89.87,357.55c2.52,1,4.83,2.72,7,2.61,1.27-.07,2.39-3.05,3.76-5l-7.08-3.07Zm53.67-10.17c4.9,1.76,8.71,3.23,12.59,4.44.7.22,1.88-.46,2.51-1.06a2.61,2.61,0,0,0-.81-2.12,95.17,95.17,0,0,0-10.42-3.12C146.57,345.33,145.43,346.43,143.54,347.38Zm-22.43-12.91-7.18,7.6c4.49,3.29,4.49,3.29,10.45-5.2Zm-14.74,8.69c-3.85-.68-7.11,1.58-8.66,5.77C102.92,352,105.13,350.55,106.37,343.16ZM254.87,72V70.89H229.23l0,1.12Zm-25.76-7.92c-4.46-4.26-8.89-4.25-12.85,0Zm-74.93,291-12.22-3-.42.93,9.5,6Zm-6.85-30.8-.18.82c1.16.73,2.26,1.56,3.48,2.17s3,1.68,3.7,1.24c1-.63,1.25-2.46,2-4.23ZM260.7,85.89c4.46,2.68,13.34.56,14.91-2.66Zm.79-48.25v1.09h13.23V37.64Zm2.59,20.79,12.12.81C274.55,56.47,268.2,55.79,264.08,58.43ZM111.29,374.33a24.1,24.1,0,0,0-.31,4.4,3.21,3.21,0,0,0,1.42,2.36c.6.22,1.87-.5,2.41-1.16C117,377.25,116.07,375.69,111.29,374.33ZM193.44,95.67l.7.55L202.3,84c-1.49-.25-3.13.06-3.65,1C196.71,88.41,195.14,92.08,193.44,95.67ZM120.81,259.74l.57,0V248.79l-.57,0Zm183.51-5.45h-1.23v9h1.23ZM195.51,62.13l-1.46-.59c-1.56,2.31-3.67,4.4-3.4,7.44l1.22.52Zm122.85-11,.8-1.29L312.92,45l-.71,1C314.32,47.63,315.07,51.07,318.36,51.16Zm-71.25,27.1L247,76.85h-7.35l.08.92Zm-23.55-42,.16,1.75,6.38-1.77c-.14-.56-.29-1.12-.43-1.67Z"/><path d="M269.15,196a24,24,0,0,1-3.57-.7c-3.9-1.44-7.83-2.85-11.61-4.58-1.12-.51-1.79-2-2.66-3.08,1.42-.59,3-1.88,4.23-1.61a24.45,24.45,0,0,1,7.15,3c4.79,2.88,9.05,2.07,14-.17C286,184.6,294,179.08,299.5,170.2c1.11-1.8,2.95-3.57,5.11-1.49,1.95,1.88.22,3.42-1.17,4.92s-2.56,3.66-4.16,5.13c-3.33,3.05-6.61,6.3-10.42,8.64-4.83,3-10.14,5.16-15.31,7.54A21.26,21.26,0,0,1,269.15,196Z"/><path d="M260.94,146.49a34.82,34.82,0,0,1,.11-6.22c.17-.93,1.55-1.64,2.38-2.45.82.84,2.23,1.61,2.34,2.54a60.3,60.3,0,0,1,.07,8.18c-.06,1.93.63,3,2.71,2.78,2.93-.3,5.87-.71,8.81-.82,1.1,0,2.88.38,3.17,1.07a3.63,3.63,0,0,1-.89,3.32,7,7,0,0,1-3.92,1.23c-3.25.18-6.51,0-9.75.16-3.51.22-5.13-1.22-5-4.72.05-1.69,0-3.38,0-5.07Z"/><path d="M234.22,125.32l4.25-4c.81,1.38,2,2.68,2.35,4.17.42,1.94,0,4.33-2.71,3.88C236.9,129.18,236,127.25,234.22,125.32Z"/><path d="M281.76,115.31l4.2-3.5c.89,1.21,2.46,2.42,2.47,3.64s-1.58,2.42-2.47,3.63Z"/></g></g></svg>